<svg style="display: none" xmlns="http://www.w3.org/2000/svg">

<symbol id="vk" viewBox="0 0 24 24" >
  <g>
    <path d="m19.915 13.028c-.388-.49-.277-.708 0-1.146.005-.005 3.208-4.431 3.538-5.932l.002-.001c.164-.547 0-.949-.793-.949h-2.624c-.668 0-.976.345-1.141.731 0 0-1.336 3.198-3.226 5.271-.61.599-.892.791-1.225.791-.164 0-.419-.192-.419-.739v-5.105c0-.656-.187-.949-.74-.949h-4.126c-.419 0-.668.306-.668.591 0 .622.945.765 1.043 2.515v3.797c0 .832-.151.985-.486.985-.892 0-3.057-3.211-4.34-6.886-.259-.713-.512-1.001-1.185-1.001h-2.625c-.749 0-.9.345-.9.731 0 .682.892 4.073 4.148 8.553 2.17 3.058 5.226 4.715 8.006 4.715 1.671 0 1.875-.368 1.875-1.001 0-2.922-.151-3.198.686-3.198.388 0 1.056.192 2.616 1.667 1.783 1.749 2.076 2.532 3.074 2.532h2.624c.748 0 1.127-.368.909-1.094-.499-1.527-3.871-4.668-4.023-4.878z"/>
  </g>
</symbol>

<symbol id="youtube" viewBox="0 0 20 20">
  <g>
    <path d="m334.808594 170.992188-113.113282-61.890626c-6.503906-3.558593-14.191406-3.425781-20.566406.351563-6.378906 3.78125-10.183594 10.460937-10.183594 17.875v122.71875c0 7.378906 3.78125 14.046875 10.117188 17.832031 3.308594 1.976563 6.976562 2.96875 10.652344 2.96875 3.367187 0 6.742187-.832031 9.847656-2.503906l113.117188-60.824219c6.714843-3.613281 10.90625-10.59375 10.9375-18.222656.027343-7.628906-4.113282-14.640625-10.808594-18.304687zm-113.859375 63.617187v-91.71875l84.539062 46.257813zm0 0"/>
    <path d="m508.234375 91.527344-.023437-.234375c-.433594-4.121094-4.75-40.777344-22.570313-59.421875-20.597656-21.929688-43.949219-24.59375-55.179687-25.871094-.929688-.105469-1.78125-.203125-2.542969-.304688l-.894531-.09375c-67.6875-4.921874-169.910157-5.5937495-170.933594-5.59765575l-.089844-.00390625-.089844.00390625c-1.023437.00390625-103.246094.67578175-171.542968 5.59765575l-.902344.09375c-.726563.097657-1.527344.1875-2.398438.289063-11.101562 1.28125-34.203125 3.949219-54.859375 26.671875-16.972656 18.445312-21.878906 54.316406-22.382812 58.347656l-.058594.523438c-.152344 1.714844-3.765625 42.539062-3.765625 83.523437v38.3125c0 40.984375 3.613281 81.808594 3.765625 83.527344l.027344.257813c.433593 4.054687 4.746093 40.039062 22.484375 58.691406 19.367187 21.195312 43.855468 24 57.027344 25.507812 2.082031.238282 3.875.441406 5.097656.65625l1.183594.164063c39.082031 3.71875 161.617187 5.550781 166.8125 5.625l.15625.003906.15625-.003906c1.023437-.003907 103.242187-.675781 170.929687-5.597657l.894531-.09375c.855469-.113281 1.816406-.214843 2.871094-.324218 11.039062-1.171875 34.015625-3.605469 54.386719-26.019532 16.972656-18.449218 21.882812-54.320312 22.382812-58.347656l.058594-.523437c.152344-1.71875 3.769531-42.539063 3.769531-83.523438v-38.3125c-.003906-40.984375-3.617187-81.804687-3.769531-83.523437zm-26.238281 121.835937c0 37.933594-3.3125 77-3.625 80.585938-1.273438 9.878906-6.449219 32.574219-14.71875 41.5625-12.75 14.027343-25.847656 15.417969-35.410156 16.429687-1.15625.121094-2.226563.238282-3.195313.359375-65.46875 4.734375-163.832031 5.460938-168.363281 5.488281-5.082032-.074218-125.824219-1.921874-163.714844-5.441406-1.941406-.316406-4.039062-.558594-6.25-.808594-11.214844-1.285156-26.566406-3.042968-38.371094-16.027343l-.277344-.296875c-8.125-8.464844-13.152343-29.6875-14.429687-41.148438-.238281-2.710937-3.636719-42.238281-3.636719-80.703125v-38.3125c0-37.890625 3.304688-76.914062 3.625-80.574219 1.519532-11.636718 6.792969-32.957031 14.71875-41.574218 13.140625-14.453125 26.996094-16.054688 36.160156-17.113282.875-.101562 1.691407-.195312 2.445313-.292968 66.421875-4.757813 165.492187-5.464844 169.046875-5.492188 3.554688.023438 102.589844.734375 168.421875 5.492188.808594.101562 1.691406.203125 2.640625.3125 9.425781 1.074218 23.671875 2.699218 36.746094 16.644531l.121094.128906c8.125 8.464844 13.152343 30.058594 14.429687 41.75.226563 2.558594 3.636719 42.171875 3.636719 80.71875zm0 0"/>
  </g>
</symbol>

<symbol id="whatsapp" viewBox="0 0 20 20">
  <g>
    <path d="m544.386719 93.007812c-59.875-59.945312-139.503907-92.9726558-224.335938-93.007812-174.804687 0-317.070312 142.261719-317.140625 317.113281-.023437 55.894531 14.578125 110.457031 42.332032 158.550781l-44.992188 164.335938 168.121094-44.101562c46.324218 25.269531 98.476562 38.585937 151.550781 38.601562h.132813c174.785156 0 317.066406-142.273438 317.132812-317.132812.035156-84.742188-32.921875-164.417969-92.800781-224.359376zm-224.335938 487.933594h-.109375c-47.296875-.019531-93.683594-12.730468-134.160156-36.742187l-9.621094-5.714844-99.765625 26.171875 26.628907-97.269531-6.269532-9.972657c-26.386718-41.96875-40.320312-90.476562-40.296875-140.28125.054688-145.332031 118.304688-263.570312 263.699219-263.570312 70.40625.023438 136.589844 27.476562 186.355469 77.300781s77.15625 116.050781 77.132812 186.484375c-.0625 145.34375-118.304687 263.59375-263.59375 263.59375zm144.585938-197.417968c-7.921875-3.96875-46.882813-23.132813-54.148438-25.78125-7.257812-2.644532-12.546875-3.960938-17.824219 3.96875-5.285156 7.929687-20.46875 25.78125-25.09375 31.066406-4.625 5.289062-9.242187 5.953125-17.167968 1.984375-7.925782-3.964844-33.457032-12.335938-63.726563-39.332031-23.554687-21.011719-39.457031-46.960938-44.082031-54.890626-4.617188-7.9375-.039062-11.8125 3.476562-16.171874 8.578126-10.652344 17.167969-21.820313 19.808594-27.105469 2.644532-5.289063 1.320313-9.917969-.664062-13.882813-1.976563-3.964844-17.824219-42.96875-24.425782-58.839844-6.4375-15.445312-12.964843-13.359374-17.832031-13.601562-4.617187-.230469-9.902343-.277344-15.1875-.277344-5.28125 0-13.867187 1.980469-21.132812 9.917969-7.261719 7.933594-27.730469 27.101563-27.730469 66.105469s28.394531 76.683594 32.355469 81.972656c3.960937 5.289062 55.878906 85.328125 135.367187 119.648438 18.90625 8.171874 33.664063 13.042968 45.175782 16.695312 18.984374 6.03125 36.253906 5.179688 49.910156 3.140625 15.226562-2.277344 46.878906-19.171875 53.488281-37.679687 6.601563-18.511719 6.601563-34.375 4.617187-37.683594-1.976562-3.304688-7.261718-5.285156-15.183593-9.253906zm0 0" fill-rule="evenodd"/>
  </g>
</symbol>

<symbol id="mail"  viewBox="0 0 20 20">
  <g>
   <path d="m512 103.606c0-4.151-3.365-7.516-7.516-7.516s-7.516 3.365-7.516 7.516c0 38.321-31.177 69.498-69.498 69.498-38.322 0-69.499-31.177-69.499-69.498s31.177-69.498 69.499-69.498c26.533 0 50.378 14.76 62.232 38.52 1.853 3.715 6.37 5.224 10.08 3.37 3.715-1.853 5.224-6.366 3.37-10.08-14.414-28.893-43.414-46.842-75.682-46.842-46.61 0-84.531 37.92-84.531 84.53 0 .602.033 1.195.046 1.794h-202.935c-4.151 0-7.516 3.365-7.516 7.516s3.365 7.516 7.516 7.516h204.576c3.789 18.682 13.77 35.132 27.685 47.147l-146.667 156.91c-2.394 2.561-5.645 3.972-9.151 3.972s-6.756-1.411-9.151-3.972l-187.913-201.038c2.191-1.877 5.03-3.02 8.135-3.02h75.345c4.151 0 7.516-3.365 7.516-7.516s-3.365-7.516-7.516-7.516h-75.346c-15.195 0-27.558 12.363-27.558 27.558v263.705c-.306 14.766 12.785 27.859 27.558 27.558h225.966l34.603 59.934c3.169 5.49 8.847 8.768 15.186 8.768h.001c6.34 0 12.017-3.277 15.187-8.768l34.602-59.934h52.314c14.763.306 27.861-12.79 27.558-27.558v-208.725c44.05-2.852 79.02-39.574 79.02-84.331zm-382.281 159.851-114.682 122.691v-245.382zm275.705 145.732h-53.761c-4.46 0-8.616 2.4-10.848 6.263l-35.325 61.187c-.629 1.09-1.63 1.253-2.171 1.253-.539 0-1.539-.162-2.169-1.253l-35.327-61.189c-2.231-3.862-6.388-6.261-10.847-6.261h-227.413c-3.655.074-7.077-1.67-9.421-4.35l121.865-130.376 56.354 60.29c5.192 5.555 12.529 8.74 20.132 8.74s14.941-3.185 20.133-8.74l56.353-60.289 62.818 67.205c2.84 3.037 7.596 3.189 10.623.359 3.033-2.835 3.193-7.591.359-10.623l-63.512-67.948 81.35-87.031c9.985 5.898 21.277 9.802 33.333 11.16v198.563l-26.961-28.844c-2.834-3.032-7.591-3.194-10.623-.359-3.033 2.835-3.193 7.591-.359 10.623l34.803 37.234c-2.166 2.614-5.348 4.116-9.386 4.386z"/>
    <path d="m428.882 149.24c4.151 0 7.516-3.365 7.516-7.516v-68.218c0-4.151-3.365-7.516-7.516-7.516h-14.582c-4.151 0-7.516 3.365-7.516 7.516s3.365 7.516 7.516 7.516h7.066v60.702c0 4.151 3.365 7.516 7.516 7.516z"/>
  </g>
</symbol>

</svg>
